<?xml version="1.0" standalone="no"?>
<!DOCTYPE svg PUBLIC "-//W3C//DTD SVG 20010904//EN"
 "http://www.w3.org/TR/2001/REC-SVG-20010904/DTD/svg10.dtd">
<svg version="1.0" xmlns="http://www.w3.org/2000/svg"
 width="720.000000pt" height="320.000000pt" viewBox="0 0 720.000000 320.000000"
 preserveAspectRatio="xMidYMid meet">

<g transform="translate(0.000000,320.000000) scale(0.100000,-0.100000)"
fill="#000000" stroke="none">
<path d="M0 1600 l0 -1600 3600 0 3600 0 0 1600 0 1600 -3600 0 -3600 0 0
-1600z m2185 -10 c0 -1269 -2 -1435 -15 -1435 -13 0 -15 168 -18 1438 -2 1366
-1 1438 15 1435 17 -3 18 -78 18 -1438z m642 1243 c66 -31 104 -124 83 -202
-30 -112 -145 -162 -250 -108 -127 63 -114 268 20 320 31 12 113 6 147 -10z
m493 -8 c34 -31 42 -61 26 -99 -8 -19 -22 -39 -32 -44 -18 -10 -18 -11 -1 -30
21 -23 51 -118 43 -138 -3 -8 -15 -12 -28 -10 -13 3 -26 5 -29 5 -4 1 -10 18
-14 38 -10 55 -32 92 -60 99 -44 11 -50 3 -47 -69 4 -64 3 -66 -22 -73 -13 -3
-30 -3 -35 1 -7 4 -11 68 -11 177 l0 170 94 -4 c77 -2 98 -7 116 -23z m470 6
c57 -29 80 -73 80 -148 0 -71 -15 -110 -56 -142 l-26 -20 29 -6 c49 -11 53
-14 53 -34 0 -32 -14 -33 -92 -7 -40 13 -89 27 -108 30 -114 19 -172 143 -119
253 40 83 155 119 239 74z m340 -96 c0 -134 12 -169 60 -180 37 -8 77 14 85
48 3 12 6 72 8 132 l2 110 33 3 32 3 0 -123 c0 -100 -3 -130 -18 -157 -52 -96
-204 -94 -252 3 -16 35 -20 62 -20 152 0 61 3 114 7 117 3 4 19 7 35 7 l28 0
0 -115z m640 100 c0 -8 0 -18 0 -22 0 -5 -30 -10 -67 -13 l-68 -5 -3 -42 -3
-43 70 0 c69 0 71 -1 71 -25 0 -24 -2 -25 -70 -25 l-70 0 0 -50 0 -49 73 -3
c69 -3 72 -4 72 -28 l0 -25 -105 0 -105 0 -3 173 -2 172 105 0 c87 0 105 -3
105 -15z m406 3 c3 -4 3 -16 -1 -28 -6 -19 -12 -21 -42 -15 -65 12 -112 -11
-97 -48 3 -8 32 -27 66 -43 77 -37 103 -69 94 -118 -4 -23 -17 -42 -36 -56
-37 -26 -116 -36 -164 -20 -31 10 -36 15 -30 33 4 12 8 23 9 25 1 1 25 -3 53
-9 44 -11 54 -10 77 5 43 28 30 56 -42 91 -82 40 -93 51 -93 92 0 74 43 105
137 100 34 -1 65 -6 69 -9z m459 -18 c0 -23 -4 -25 -52 -28 l-53 -3 0 -139 c0
-87 -4 -141 -11 -145 -5 -4 -21 -4 -34 -1 -24 6 -24 7 -27 148 l-3 141 -45 1
c-42 1 -45 3 -48 29 l-3 28 138 -3 138 -3 0 -25z m315 27 c0 -1 25 -76 55
-166 30 -90 53 -167 50 -171 -3 -5 -18 -8 -32 -7 -23 2 -31 10 -44 47 l-17 45
-59 3 -60 3 -12 -46 c-6 -25 -15 -45 -19 -46 -4 0 -19 -3 -34 -5 -16 -3 -28 0
-28 5 0 6 25 83 55 173 30 89 55 164 55 165 0 2 20 3 45 3 25 0 45 -1 45 -3z
m-4601 -72 c89 -8 149 -19 157 -27 13 -13 12 -23 -41 -528 -17 -161 -67 -626
-91 -848 -8 -79 -13 -146 -10 -149 3 -3 54 -33 113 -67 59 -34 109 -67 111
-73 6 -20 -13 -15 -65 16 -26 16 -95 56 -153 90 -126 74 -233 168 -313 276
-132 178 -182 341 -144 469 12 40 40 65 30 27 -15 -58 47 -137 123 -156 96
-24 185 19 235 114 56 105 31 229 -64 318 -99 92 -257 131 -393 97 l-27 -7 7
62 c8 73 13 88 30 94 7 3 56 -2 110 -10 55 -8 102 -11 106 -6 4 4 13 73 19
153 7 79 17 153 22 163 8 15 18 17 52 12 23 -3 107 -12 186 -20z m-577 -56
c16 -9 18 -28 18 -197 0 -206 1 -201 -65 -244 -71 -45 -144 -128 -180 -203
-49 -104 -60 -163 -59 -310 0 -107 5 -148 28 -235 54 -209 148 -416 293 -644
25 -37 42 -70 40 -72 -5 -5 -197 23 -221 32 -19 7 -19 5 -2 119 8 50 13 91 11
93 -2 2 -62 6 -134 9 -88 4 -132 10 -135 18 -6 16 23 1593 29 1623 6 23 6 23
182 22 98 -1 185 -6 195 -11z m334 -464 c81 -34 154 -116 167 -191 20 -108
-83 -227 -180 -209 -47 8 -93 54 -93 92 0 48 14 57 38 24 52 -70 151 -37 152
50 1 102 -183 145 -280 66 -192 -157 -120 -498 168 -791 73 -75 153 -139 219
-177 43 -24 58 -59 32 -74 -6 -4 -71 -1 -145 6 -73 7 -136 11 -138 8 -2 -2
-11 -51 -19 -109 l-16 -105 83 -115 c46 -63 79 -117 73 -119 -14 -5 -48 36
-145 174 -380 541 -506 973 -367 1260 45 93 134 177 223 210 51 19 184 19 228
0z m-406 -51 c-186 -177 -208 -492 -62 -859 105 -261 313 -588 589 -924 100
-121 132 -170 104 -159 -14 5 -177 203 -269 328 -136 184 -163 219 -171 222
-16 6 -155 247 -221 383 -171 352 -205 640 -101 861 36 76 81 135 135 175 62
45 60 34 -4 -27z m409 -153 c25 -19 26 -56 2 -56 -13 0 -48 48 -50 68 -2 13
23 7 48 -12z m1870 -29 c64 -52 76 -84 75 -197 -1 -92 -4 -109 -44 -215 -83
-223 -90 -292 -31 -337 21 -16 85 -16 114 0 33 18 105 96 133 143 100 170 110
353 26 507 -19 36 -23 53 -16 64 15 24 112 76 130 69 8 -3 24 -27 36 -53 30
-67 22 -243 -16 -358 -70 -210 -184 -373 -302 -431 -48 -23 -63 -26 -125 -22
-59 5 -76 10 -107 35 -55 44 -76 94 -76 178 1 72 14 123 89 335 61 173 50 260
-33 260 -103 0 -182 -161 -117 -238 31 -38 32 -62 0 -96 -56 -60 -115 -11
-115 97 0 67 16 110 66 178 63 86 134 122 223 115 40 -4 63 -12 90 -34z m2871
28 c10 -6 16 -32 18 -84 7 -134 -48 -262 -177 -414 -61 -70 -65 -78 -69 -131
-4 -73 20 -125 62 -129 45 -5 69 4 134 53 33 25 63 45 66 45 3 0 6 -13 6 -30
0 -25 -10 -37 -62 -76 -89 -66 -153 -94 -213 -94 -167 0 -200 183 -90 504 36
108 102 257 128 290 8 11 50 32 93 48 92 32 85 30 104 18z m812 4 c3 -3 -14
-80 -38 -172 -66 -251 -103 -416 -110 -492 -6 -63 -5 -69 15 -79 18 -10 28 -9
54 8 18 11 43 31 56 45 32 34 41 33 41 -3 0 -24 -12 -40 -67 -85 -99 -82 -154
-102 -205 -75 -23 12 -48 66 -48 104 0 16 -6 25 -15 25 -8 0 -15 -4 -15 -9 0
-18 -83 -93 -123 -112 -23 -10 -61 -19 -84 -19 -35 0 -48 6 -77 35 -91 91 -62
263 67 391 92 91 195 125 262 85 26 -15 37 -17 40 -8 2 6 22 83 44 171 22 87
44 163 49 168 15 15 143 34 154 22z m-5812 -135 c-36 -131 37 -333 184 -517
36 -45 59 -79 53 -76 -7 3 -43 44 -80 92 -141 180 -205 380 -165 513 15 53 22
42 8 -12z m2943 14 c21 -3 43 0 51 6 8 7 17 8 20 3 10 -16 -25 -102 -48 -117
-34 -22 -110 -24 -139 -2 -16 11 -15 16 10 70 23 49 30 57 48 51 11 -3 37 -8
58 -11z m3246 3 l53 1 -6 -35 c-8 -51 -31 -80 -74 -91 -38 -11 -105 0 -117 18
-2 5 7 34 21 65 23 50 28 56 47 49 12 -4 46 -8 76 -7z m-3270 -369 c-29 -88
-43 -150 -44 -187 0 -54 1 -55 30 -58 23 -2 41 6 72 33 23 19 44 35 47 35 3 0
4 -14 3 -31 -4 -53 -157 -169 -225 -169 -37 0 -78 36 -89 78 -8 31 3 178 16
217 6 17 22 67 37 113 26 78 29 83 63 91 74 20 126 27 130 18 1 -4 -16 -67
-40 -140z m713 129 c26 -38 -6 -180 -63 -281 -29 -52 -30 -54 -10 -64 32 -17
66 -13 105 14 20 14 39 25 41 25 3 0 5 -13 5 -30 0 -21 -8 -35 -26 -47 -31
-20 -128 -30 -138 -14 -13 20 -37 12 -82 -28 -59 -51 -107 -74 -173 -79 -109
-9 -169 61 -158 187 6 71 69 282 90 299 12 10 114 32 150 32 22 0 21 -1 -29
-139 -19 -52 -41 -125 -49 -163 -14 -63 -14 -73 1 -104 14 -28 22 -34 49 -34
40 0 112 50 121 84 3 13 0 34 -7 47 -20 38 -15 147 10 200 44 93 130 143 163
95z m561 10 c18 -7 40 -23 51 -34 l18 -21 74 37 c40 20 76 33 80 29 4 -4 -13
-71 -36 -149 -50 -165 -60 -237 -36 -257 21 -18 58 -2 108 44 43 41 58 44 58
11 0 -27 -30 -59 -115 -125 -54 -41 -65 -46 -114 -46 -46 0 -56 4 -73 26 -11
15 -23 47 -25 73 -3 25 -8 46 -12 46 -3 -1 -19 -18 -36 -39 -49 -61 -109 -103
-160 -109 -60 -6 -95 10 -129 61 -26 39 -27 48 -23 122 3 61 10 92 30 130 44
85 138 167 227 198 56 20 73 20 113 3z m1997 0 c0 -8 -14 -52 -30 -97 -43
-116 -73 -236 -66 -265 5 -18 13 -24 35 -24 26 0 82 35 103 65 5 6 11 6 18 -1
18 -18 -4 -57 -61 -108 -97 -87 -164 -106 -216 -62 -25 22 -28 31 -31 106 -5
90 10 166 56 289 l27 75 75 17 c41 9 78 17 83 18 4 0 7 -5 7 -13z m-5820 -487
c50 -39 118 -82 200 -127 102 -55 120 -67 120 -75 0 -5 -15 0 -32 11 -18 11
-67 39 -108 62 -97 56 -169 103 -200 130 -14 12 -36 32 -50 44 -14 12 -30 28
-34 36 -5 8 6 1 25 -16 19 -16 54 -46 79 -65z m2543 -514 c48 -31 53 -93 11
-136 -24 -25 -25 -29 -11 -43 14 -15 47 -109 47 -136 0 -7 -13 -10 -32 -8 -30
3 -33 7 -49 61 -10 33 -20 61 -22 64 -3 3 -22 8 -41 13 l-36 8 -1 -62 c-1 -33
-1 -67 0 -73 1 -8 -11 -13 -34 -13 l-35 0 0 169 c0 168 0 170 23 175 46 10
153 -1 180 -19z m-933 -10 c0 -23 -3 -25 -50 -25 l-50 0 0 -145 0 -145 -35 0
-35 0 0 145 0 145 -50 0 c-47 0 -50 2 -50 25 l0 25 135 0 135 0 0 -25z m378 8
c5 -10 30 -79 55 -153 25 -74 49 -143 53 -153 6 -16 2 -18 -31 -15 -34 3 -39
7 -54 48 l-16 45 -57 3 -56 3 -17 -51 c-16 -47 -18 -50 -52 -50 -19 0 -33 4
-31 8 2 5 28 82 58 170 l54 162 43 0 c30 0 45 -5 51 -17z m912 -153 l0 -170
-30 0 -30 0 0 170 0 170 30 0 30 0 0 -170z m410 40 c0 -146 -10 -179 -58 -199
-16 -7 -49 -11 -73 -9 -36 2 -44 7 -44 23 0 16 8 21 35 23 64 6 70 19 70 164
l0 128 35 0 35 0 0 -130z m443 113 c3 -10 28 -84 56 -165 28 -81 51 -150 51
-153 0 -3 -16 -5 -35 -5 -31 0 -35 3 -46 40 -16 53 -28 62 -85 58 -47 -3 -49
-4 -65 -48 -14 -39 -21 -45 -48 -48 -40 -4 -40 1 5 124 20 54 42 120 49 146
18 65 21 68 69 68 33 0 45 -4 49 -17z"/>
<path d="M2681 2773 c-57 -57 -51 -165 12 -204 86 -54 175 37 145 148 -14 50
-39 74 -85 80 -37 5 -46 2 -72 -24z"/>
<path d="M3178 2795 c-6 -6 -1 -95 6 -102 9 -10 75 7 91 23 36 36 6 84 -54 84
-21 0 -40 -2 -43 -5z"/>
<path d="M3641 2772 c-55 -54 -48 -165 12 -203 95 -60 188 52 138 166 -32 71
-99 88 -150 37z"/>
<path d="M5890 2759 c0 -11 -4 -28 -9 -37 -4 -9 -11 -29 -15 -44 -6 -27 -5
-28 38 -28 l44 0 -21 65 c-21 65 -37 84 -37 44z"/>
<path d="M780 2150 c0 -11 2 -20 4 -20 2 0 6 9 9 20 3 11 1 20 -4 20 -5 0 -9
-9 -9 -20z"/>
<path d="M5770 1958 c-36 -59 -120 -318 -120 -370 0 -40 121 153 151 239 22
66 23 154 2 160 -7 3 -22 -10 -33 -29z"/>
<path d="M6261 1628 c-50 -54 -93 -153 -99 -229 -4 -63 -3 -68 22 -84 16 -11
35 -15 50 -11 83 21 183 242 145 322 -11 23 -22 30 -51 32 -30 3 -41 -2 -67
-30z"/>
<path d="M4923 1615 c-51 -61 -92 -165 -93 -232 0 -45 4 -55 24 -68 15 -10 33
-14 50 -9 63 16 144 148 153 251 7 80 -5 103 -57 103 -34 0 -44 -6 -77 -45z"/>
<path d="M3630 625 l0 -55 35 0 c37 0 75 28 75 55 0 27 -38 55 -75 55 l-35 0
0 -55z"/>
<path d="M3137 606 c-25 -80 -24 -86 23 -86 22 0 40 3 40 8 0 12 -36 121 -41
127 -3 2 -13 -19 -22 -49z"/>
<path d="M4916 645 c-48 -125 -48 -125 4 -125 45 0 48 8 26 67 -8 21 -17 47
-19 58 l-4 20 -7 -20z"/>
</g>
</svg>
